<?xml version="1.0" encoding="utf-8"?>
<svg viewBox="0 0 64 64" xmlns="http://www.w3.org/2000/svg">
  <path d="M36.757,6H16c-1.657,0-3,1.343-3,3v46c0,1.657,1.343,3,3,3h34c1.657,0,3-1.343,3-3V22.243 c0-0.796-0.317-1.56-0.879-2.121L38.878,6.879C38.316,6.317,37.553,6,36.757,6" style="stroke-linecap: round; stroke-linejoin: round; fill: rgba(255, 86, 34, 0.85);"/>
  <path d="M52.121,20.122L38.878,6.879c-0.255-0.255-0.556-0.452-0.878-0.6V18c0,1.657,1.343,3,3,3 h11.721C52.574,20.678,52.377,20.377,52.121,20.122z" style="fill: rgba(255, 86, 34, 0.5);"/>
  <path d="M41,21c-1.657,0-3-1.343-3-3v3c0,1.657,1.343,3,3,3h12v-1.757 c0-0.434-0.102-0.855-0.279-1.243H41z" style="fill: rgb(255, 86, 34);"/>
  <path d="M13,29h39c2.761,0,5,2.239,5,5v12c0,2.761-2.239,5-5,5H13c-2.761,0-5-2.239-5-5V34 C8,31.239,10.239,29,13,29z" style="fill: rgb(255, 87, 34);"/>
  <path d="M19,36.078c0-0.728,0.398-1.125,1.128-1.125H23.1c2.295,0,3.9,1.244,3.9,3.453 c0,2.143-1.539,3.479-3.914,3.479h-1.539v1.892c0,0.701-0.57,1.27-1.274,1.27c-0.703,0-1.274-0.568-1.274-1.27L19,36.078L19,36.078z M22.728,39.94c1.022,0,1.765-0.396,1.765-1.495c0-1.098-0.73-1.548-1.751-1.548h-1.194v3.043H22.728z" style="fill: rgb(226, 9, 9);"/>
  <path d="M29,36.078c0-0.728,0.404-1.125,1.143-1.125h2.341c2.973,0,5.516,1.323,5.516,4.975 c0,3.334-2.126,5.014-5.516,5.014h-2.341c-0.74,0-1.143-0.396-1.143-1.124C29,43.818,29,36.078,29,36.078z M32.484,42.931 c1.668,0,2.839-0.661,2.839-3.043c0-2.156-1.076-2.937-2.839-2.937h-0.928v5.979L32.484,42.931L32.484,42.931z" style="fill: rgb(226, 9, 9);"/>
  <path d="M40,36.078c0-0.728,0.412-1.125,1.167-1.125h4.776c0.576,0,1.057,0.463,1.057,1.019 c0,0.569-0.48,1.032-1.057,1.032h-3.308v2.302h2.676c0.563,0,1.029,0.45,1.029,0.992c0,0.556-0.467,1.006-1.029,1.006h-2.676v2.474 c0,0.701-0.59,1.27-1.318,1.27S40,44.479,40,43.777V36.078z" style="fill: rgb(226, 9, 9);"/>
</svg>