<svg xmlns="http://www.w3.org/2000/svg" viewBox="0 0 64 64"><linearGradient id="uCZz3JcUOJjrtrvOyVUpab" x1="32" x2="32" y1="5.723" y2="55.93" gradientUnits="userSpaceOnUse"><stop offset="0" stop-color="#a4a4a4"/><stop offset=".619" stop-color="gray"/><stop offset="1" stop-color="#6f6f6f"/></linearGradient><path fill="url(#uCZz3JcUOJjrtrvOyVUpab)" d="M58,32c0,13.35-10.05,24.34-23,25.83C34.02,57.94,33.01,58,32,58c-1.71,0-3.38-0.17-5-0.49 C15.03,55.19,6,44.65,6,32C6,17.64,17.64,6,32,6S58,17.64,58,32z"/><path fill="#fff" d="M22.973,57.169c-0.006-0.002-0.013-0.004-0.019-0.006C22.961,57.165,22.967,57.167,22.973,57.169z"/><path fill="#fff" d="M40,56.727v-6.266c0-2.733-1.831-6.361-4.341-7.652c9.12-0.931,13.472-5.408,13.472-11.485 c0-2.614-1.125-5.14-3.035-7.269c0.638-2.114,1.44-6.451-0.233-8.098c-4.119,0-6.606,2.636-7.195,3.341 c-2.053-0.696-4.311-1.088-6.679-1.088c-2.363,0-4.613,0.392-6.661,1.084c-0.597-0.71-3.081-3.337-7.191-3.337 c-1.666,1.645-0.873,5.964-0.242,8.082c-1.922,2.134-3.054,4.667-3.054,7.285c0,6.081,4.359,10.561,13.493,11.487 c-1.584,0.816-2.88,2.544-3.63,4.421c-1.394,0.216-2.875,0.273-3.865,0.273c-2.041,0-2.555-0.32-3.648-1.733 c-1.097-1.41-2.263-2.361-3.669-2.753c-0.761-0.079-1.264,0.505-0.604,1.016c2.226,1.537,2.382,4.049,3.28,5.692 C17.008,51.205,18.677,52,20.553,52c0.469,0,2.334,0,3.447,0v4.737c0,0.25,3.998,1.319,7.998,1.319 C36.551,58.056,40,56.833,40,56.727z"/></svg>