<svg xmlns="http://www.w3.org/2000/svg" viewBox="0 0 48 48"><path fill="#546e7a" d="M10,3h3v40h-3c-2.209,0-4-1.791-4-4V7C6,4.791,7.791,3,10,3"/><path fill="#78909c" d="M42,7c0-2.209-1.791-4-4-4H12v32h30V7z"/><path fill="#546e7a" d="M38,43c2.209,0,4-1.791,4-4v-4H12v8H38z"/><path fill="#76ff03" d="M16,27.5c0-0.829,0.672-1.5,1.5-1.5s1.5,0.671,1.5,1.5S18.328,29,17.5,29S16,28.329,16,27.5z M17.5,20c0.828,0,1.5-0.671,1.5-1.5S18.328,17,17.5,17S16,17.671,16,18.5S16.672,20,17.5,20z M17.5,11c0.828,0,1.5-0.671,1.5-1.5S18.328,8,17.5,8S16,8.671,16,9.5S16.672,11,17.5,11z"/><path fill="#ffecb3" d="M40,35H10c-1.1,0-2,0.9-2,2v2c0,1.1,0.9,2,2,2h28c1.105,0,2-0.895,2-2V35z"/><path fill="#ff3d00" d="M21,46l-4.5-3L12,46v-9h9V46z"/></svg>